# Blender v2.78 (sub 0) OBJ File: '11.blend'
# www.blender.org
mtllib Whale_01.mtl
g Whale_01_Cube.030
v 2.649302 3.335124 11.421713
v 2.456870 4.913739 12.282640
v 2.456870 3.026039 -9.365199
v 2.456870 4.913739 -9.365199
v 3.297266 3.887881 5.066693
v 3.297266 3.887881 -1.782097
v 2.884368 7.890207 -1.782097
v 3.268029 7.890207 5.066693
v 1.226829 2.749860 -14.792251
v 1.226829 3.637748 -14.792251
v 0.765314 3.948975 -18.271288
v 0.765314 4.758584 -17.906759
v 4.294227 5.097378 -21.532961
v 4.294227 5.581161 -21.610840
v 2.456870 3.969889 -9.365199
v 2.456870 3.698189 12.282640
v 3.826203 5.577024 -1.782097
v 3.826203 5.577024 5.066693
v 1.226829 3.193804 -14.792251
v 0.765314 4.353779 -18.089024
v 4.294227 5.339270 -21.571901
v 2.756947 3.766988 12.488275
v 3.551858 5.112614 7.048861
v 3.297266 3.887881 1.642298
v 3.125302 7.890207 1.642298
v 2.890163 3.666754 6.540733
v 3.826203 5.577024 1.642298
v 4.580739 4.463918 3.359166
v 4.253168 3.909211 3.496471
v 3.973488 4.463918 1.910440
v 3.645917 3.909211 2.047746
v 5.644648 3.451464 3.165004
v 5.462325 3.069712 3.367783
v 5.037396 3.451464 1.025462
v 4.855073 3.069712 1.228241
v 7.612432 2.024736 1.671728
v 7.463050 1.698768 1.854115
v 7.066248 2.024736 -0.252651
v 6.916867 1.698768 -0.070265
v 8.411956 1.341013 0.190014
v 8.146020 1.170798 0.318676
v 7.939060 1.395975 -0.638079
v 7.673125 1.225760 -0.509417
v 3.501872 5.449457 6.905017
v 3.474612 5.536933 6.929285
v 3.449546 5.580217 7.009509
v 3.441357 5.553955 7.098693
v 3.454840 5.473529 7.144598
v 3.482099 5.386053 7.120329
v 3.507164 5.342769 7.040106
v 3.515355 5.369031 6.950921
v 3.478356 5.461493 7.024807
v 3.257278 5.303384 7.014836
v 3.232213 5.346668 7.095059
v 3.204954 5.434144 7.119327
v 3.191470 5.514570 7.073423
v 3.199660 5.540833 6.984238
v 3.224726 5.497549 6.904015
v 3.251985 5.410072 6.879746
v 3.265468 5.329647 6.925650
v -2.649302 3.335124 11.421713
v -2.456870 4.913739 12.282640
v -2.456870 3.026039 -9.365199
v -2.456870 4.913739 -9.365199
v -3.297266 3.887881 5.066693
v -3.297266 3.887881 -1.782097
v -2.884368 7.890207 -1.782097
v -3.268029 7.890207 5.066693
v -1.226829 2.749860 -14.792251
v -1.226829 3.637748 -14.792251
v -0.765314 3.948975 -18.271288
v -0.765314 4.758584 -17.906759
v -4.294227 5.097378 -21.532961
v -4.294227 5.581161 -21.610840
v 0.000000 3.026039 -9.365199
v 0.000000 5.486299 -9.365199
v 0.000000 2.804420 11.738708
v 0.000000 4.913739 13.255231
v 0.000000 8.727837 -1.782097
v 0.000000 8.727837 5.066693
v 0.000000 3.263841 -1.782097
v 0.000000 3.263841 5.066693
v 0.000000 2.749860 -14.792251
v 0.000000 4.210308 -14.792251
v 0.000000 3.948975 -18.271288
v 0.000000 4.905577 -17.906759
v 0.000000 4.959630 -22.481094
v 0.000000 5.443414 -22.558971
v -2.456870 3.969889 -9.365199
v -2.456870 3.698189 12.282640
v -3.826203 5.577024 -1.782097
v -3.826203 5.577024 5.066693
v -1.226829 3.193804 -14.792251
v -0.765314 4.353779 -18.089024
v -4.294227 5.339270 -21.571901
v 0.000000 5.201522 -22.520033
v 0.000000 3.698189 13.255231
v -2.756947 3.766988 12.488275
v 0.000000 3.766988 13.589819
v -3.551858 5.112614 7.048861
v 0.000000 3.202827 6.790276
v -3.297266 3.887881 1.642298
v -3.125302 7.890207 1.642298
v 0.000000 3.263841 1.642298
v 0.000000 9.131529 1.550321
v -2.890163 3.666754 6.540733
v -3.826203 5.577024 1.642298
v -4.580739 4.463918 3.359166
v -4.253168 3.909211 3.496471
v -3.973488 4.463918 1.910440
v -3.645917 3.909211 2.047746
v -5.644648 3.451464 3.165004
v -5.462325 3.069712 3.367783
v -5.037396 3.451464 1.025462
v -4.855073 3.069712 1.228241
v -7.612432 2.024736 1.671728
v -7.463050 1.698768 1.854115
v -7.066248 2.024736 -0.252651
v -6.916867 1.698768 -0.070265
v -8.370578 1.323100 0.208343
v -8.146020 1.170798 0.318676
v -7.897683 1.378061 -0.619750
v -7.673125 1.225760 -0.509417
v 0.000000 5.493881 6.619561
v -3.501872 5.449457 6.905017
v -3.474612 5.536933 6.929285
v -3.449546 5.580217 7.009509
v -3.441357 5.553955 7.098693
v -3.454840 5.473529 7.144598
v -3.482099 5.386053 7.120329
v -3.507164 5.342769 7.040106
v -3.515355 5.369031 6.950921
v -3.478356 5.461493 7.024807
v -3.257278 5.303384 7.014836
v -3.232213 5.346668 7.095059
v -3.204954 5.434144 7.119327
v -3.191470 5.514570 7.073423
v -3.199660 5.540833 6.984238
v -3.224726 5.497549 6.904015
v -3.251985 5.410072 6.879746
v -3.265468 5.329647 6.925650
v 0.000000 8.946201 1.805551
v 0.626064 8.778406 0.993308
v 0.000000 8.946201 0.345149
v -0.626064 8.778406 0.993308
v 0.379534 9.029808 0.993308
v 0.000000 9.131529 0.600380
v -0.379534 9.029808 0.993308
v 0.000000 9.137475 1.281038
v 0.226618 9.076737 0.993308
v 0.000000 9.137475 0.758692
v -0.226618 9.076737 0.993308
v 0.000000 8.217013 0.993308
v 2.862449 6.589525 8.674666
v 0.000000 7.008340 9.160961
v 3.141536 4.637607 8.674666
v -2.862449 6.589525 8.674666
v -3.141536 4.637607 8.674666
v 0.000000 3.035833 8.796926
v 3.154403 4.439801 9.920522
v 2.653612 3.432069 8.185859
v -3.154403 4.439801 9.920522
v -2.653612 3.432069 8.185859
vn 0.2874 0.9246 -0.2500
vn 0.9800 0.0863 0.1794
vn 0.9424 0.2725 -0.1940
vn 0.9647 0.2625 -0.0201
vn 0.9917 0.0270 -0.1257
vn 0.9753 0.0000 -0.2210
vn -0.0263 0.9884 0.1498
vn 0.3296 0.9127 0.2417
vn 0.2177 -0.1551 -0.9636
vn 0.7065 -0.1531 0.6909
vn -0.3134 0.9480 -0.0546
vn 0.2367 0.8966 -0.3743
vn 0.1897 0.8779 0.4397
vn 0.3681 0.0000 0.9298
vn 0.7240 -0.1493 0.6734
vn 0.9908 0.0285 -0.1325
vn 0.8106 -0.2779 0.5155
vn 0.9745 -0.1958 -0.1101
vn 0.9543 -0.2988 0.0000
vn -0.2884 0.9571 0.0281
vn 0.9418 0.3344 -0.0331
vn 0.8939 0.4341 -0.1114
vn 0.5355 -0.2537 -0.8055
vn -0.5978 -0.1485 -0.7878
vn 0.2852 0.1862 0.9402
vn -0.5865 0.0253 -0.8096
vn 0.6166 0.7591 -0.2087
vn 0.5070 0.8499 -0.1439
vn 0.6474 0.1073 0.7546
vn 0.4113 -0.8634 -0.2922
vn 0.7867 -0.3325 0.5201
vn -0.5075 -0.1109 -0.8545
vn 0.4892 0.8566 -0.1640
vn -0.2874 0.9246 -0.2500
vn -0.9800 0.0863 0.1794
vn -0.9424 0.2725 -0.1940
vn -0.9647 0.2625 -0.0201
vn -0.9917 0.0270 -0.1257
vn -0.9753 0.0000 -0.2210
vn 0.0263 0.9884 0.1498
vn -0.3296 0.9127 0.2417
vn -0.2177 -0.1551 -0.9636
vn -0.7065 -0.1531 0.6909
vn -0.2893 0.9569 0.0236
vn -0.2367 0.8966 -0.3743
vn -0.1897 0.8779 0.4397
vn -0.3681 0.0000 0.9298
vn -0.7240 -0.1493 0.6734
vn -0.9908 0.0285 -0.1325
vn -0.8106 -0.2779 0.5155
vn -0.9745 -0.1958 -0.1101
vn -0.9543 -0.2988 0.0000
vn 0.3134 0.9480 -0.0546
vn -0.9418 0.3344 -0.0331
vn -0.8939 0.4341 -0.1114
vn -0.5355 -0.2537 -0.8055
vn 0.5978 -0.1485 -0.7878
vn -0.2852 0.1862 0.9402
vn 0.5865 0.0253 -0.8096
vn -0.6166 0.7591 -0.2087
vn -0.5070 0.8499 -0.1439
vn -0.6474 0.1073 0.7546
vn -0.4292 -0.8514 -0.3016
vn -0.8001 -0.3119 0.5124
vn 0.5144 -0.1177 -0.8494
vn -0.5134 0.8405 -0.1733
vn 0.6365 0.6241 -0.4532
vn 0.2884 0.9571 0.0281
vn -0.6890 0.6140 0.3851
vn -0.6365 0.6241 -0.4532
vn 0.6890 0.6140 0.3851
vn 0.2932 0.9554 -0.0359
vn 0.2893 0.9569 0.0236
vn -0.2932 0.9554 -0.0359
vn 0.7494 0.1975 -0.6319
vn -0.6838 0.1802 0.7071
vn -0.7494 0.1975 -0.6319
vn 0.6838 0.1802 0.7071
vn -0.2146 0.9054 0.3663
vn -0.9607 0.1886 0.2037
vn 0.2146 0.9054 0.3663
vn 0.9607 0.1886 0.2037
vn 0.1631 -0.9852 -0.0523
vn 0.1076 -0.9920 0.0660
vn 0.1860 -0.9826 0.0000
vn 0.0723 -0.9668 -0.2452
vn 0.0000 -0.9454 -0.3259
vn 0.0000 -0.9987 0.0508
vn 0.1965 -0.8875 0.4169
vn 0.9143 -0.4050 0.0096
vn 0.9233 -0.3683 0.1090
vn 0.1703 -0.9832 -0.0651
vn -0.5146 -0.8396 0.1742
vn 0.0294 -0.9996 -0.0037
vn -0.4280 -0.8928 0.1406
vn -0.4866 -0.8626 0.1381
vn 0.0865 0.9641 0.2511
vn 0.0749 0.9679 0.2398
vn -0.1631 -0.9852 -0.0523
vn -0.1076 -0.9920 0.0660
vn -0.1860 -0.9826 0.0000
vn -0.0723 -0.9668 -0.2452
vn -0.1965 -0.8875 0.4169
vn -0.9143 -0.4050 0.0096
vn -0.9233 -0.3683 0.1090
vn -0.1703 -0.9832 -0.0651
vn 0.5146 -0.8396 0.1742
vn -0.0294 -0.9996 -0.0037
vn 0.4280 -0.8928 0.1406
vn 0.4866 -0.8626 0.1381
vn -0.0865 0.9641 0.2511
vn -0.0749 0.9679 0.2398
vn -0.8908 -0.4531 0.0340
vn -0.1375 -0.9855 -0.0995
vn 0.8908 -0.4531 0.0340
vn 0.1375 -0.9855 -0.0995
vn -0.0753 0.9685 0.2373
vn 0.0753 0.9685 0.2373
vn 0.9540 0.2524 0.1619
vn 0.9540 0.2523 0.1619
vn 0.0524 0.2821 -0.9580
vn 0.1617 -0.4686 -0.8685
vn 0.0864 -0.8652 0.4938
vn -0.1617 0.4686 0.8685
vn -0.0864 0.8652 -0.4938
vn 0.1761 -0.9485 -0.2631
vn -0.0524 -0.2821 0.9580
vn -0.1761 0.9485 0.2631
vn -0.9540 0.2524 0.1619
vn -0.9540 0.2523 0.1619
vn -0.0524 0.2821 -0.9580
vn -0.1617 -0.4686 -0.8685
vn -0.0864 -0.8652 0.4938
vn 0.1617 0.4686 0.8685
vn 0.0864 0.8652 -0.4938
vn -0.1761 -0.9485 -0.2631
vn 0.0524 -0.2821 0.9580
vn 0.1761 0.9485 0.2631
usemtl 039BE5
s off
f 76//1 4//1 10//1 84//1
f 156//2 154//2 2//2 16//2
f 15//3 4//3 7//3 17//3
f 27//4 25//4 8//4 18//4
f 19//5 9//5 11//5 20//5
f 15//6 3//6 9//6 19//6
f 86//7 12//7 14//7 88//7
f 84//8 10//8 12//8 86//8
f 96//9 88//9 14//9 21//9
f 20//10 11//10 13//10 21//10
f 67//11 103//11 145//11 144//11 79//11
f 4//12 76//12 79//12 7//12
f 154//13 155//13 78//13 2//13
f 16//14 2//14 78//14 97//14
f 12//15 20//15 21//15 14//15
f 87//9 96//9 21//9 13//9
f 4//6 15//6 19//6 10//6
f 10//16 19//16 20//16 12//16
f 18//17 5//17 29//17 28//17
f 3//18 15//18 17//18 6//18
f 6//19 17//19 27//19
f 103//20 68//20 80//20 142//20 145//20
f 17//21 7//21 25//21 27//21
f 27//22 18//22 28//22 30//22
f 24//23 27//23 30//23 31//23
f 35//24 34//24 38//24 39//24
f 28//25 29//25 33//25 32//25
f 31//26 30//26 34//26 35//26
f 30//27 28//27 32//27 34//27
f 34//28 32//28 36//28 38//28
f 32//29 33//29 37//29 36//29
f 43//30 42//30 40//30 41//30
f 36//31 37//31 41//31 40//31
f 39//32 38//32 42//32 43//32
f 38//33 36//33 40//33 42//33
f 76//34 84//34 70//34 64//34
f 158//35 90//35 62//35 157//35
f 89//36 91//36 67//36 64//36
f 107//37 92//37 68//37 103//37
f 93//38 94//38 71//38 69//38
f 89//39 93//39 69//39 63//39
f 86//40 88//40 74//40 72//40
f 84//41 86//41 72//41 70//41
f 96//42 95//42 74//42 88//42
f 94//43 95//43 73//43 71//43
f 148//44 105//44 149//44 152//44
f 64//45 67//45 79//45 76//45
f 157//46 62//46 78//46 155//46
f 90//47 97//47 78//47 62//47
f 72//48 74//48 95//48 94//48
f 87//42 73//42 95//42 96//42
f 64//39 70//39 93//39 89//39
f 70//49 72//49 94//49 93//49
f 92//50 108//50 109//50 65//50
f 63//51 66//51 91//51 89//51
f 66//52 107//52 91//52
f 7//53 79//53 144//53 143//53 25//53
f 91//54 107//54 103//54 67//54
f 107//55 110//55 108//55 92//55
f 102//56 111//56 110//56 107//56
f 115//57 119//57 118//57 114//57
f 108//58 112//58 113//58 109//58
f 111//59 115//59 114//59 110//59
f 110//60 114//60 112//60 108//60
f 114//61 118//61 116//61 112//61
f 112//62 116//62 117//62 113//62
f 123//63 121//63 120//63 122//63
f 116//64 120//64 121//64 117//64
f 119//65 123//65 122//65 118//65
f 118//66 122//66 120//66 116//66
f 143//67 144//67 147//67 146//67
f 25//68 143//68 142//68 80//68 8//68
f 145//69 142//69 105//69 148//69
f 144//70 145//70 148//70 147//70
f 142//71 143//71 146//71 105//71
f 146//72 147//72 151//72 150//72
f 105//73 146//73 150//73 149//73
f 147//74 148//74 152//74 151//74
f 152//75 149//75 153//75
f 150//76 151//76 153//76
f 149//77 150//77 153//77
f 151//78 152//78 153//78
f 68//79 157//79 155//79 80//79
f 92//80 158//80 157//80 68//80
f 8//81 80//81 155//81 154//81
f 18//82 8//82 154//82 156//82
usemtl FFFFFF
f 159//83 161//83 1//83 77//83
f 75//84 3//84 6//84 81//84
f 104//85 24//85 5//85 82//85
f 11//86 85//86 87//86 13//86
f 9//87 83//87 85//87 11//87
f 3//88 75//88 83//88 9//88
f 1//89 22//89 99//89 77//89
f 161//90 160//90 22//90 1//90
f 5//91 18//91 23//91 26//91
f 82//92 5//92 26//92 101//92
f 81//85 6//85 24//85 104//85
f 29//93 31//93 35//93 33//93
f 5//94 24//94 31//94 29//94
f 37//95 39//95 43//95 41//95
f 33//96 35//96 39//96 37//96
f 22//97 160//97 23//97 99//97
f 23//98 124//98 99//98
f 159//99 77//99 61//99 163//99
f 75//100 81//100 66//100 63//100
f 104//101 82//101 65//101 102//101
f 71//102 73//102 87//102 85//102
f 69//87 71//87 85//87 83//87
f 63//88 69//88 83//88 75//88
f 61//103 77//103 99//103 98//103
f 163//104 61//104 98//104 162//104
f 65//105 106//105 100//105 92//105
f 82//106 101//106 106//106 65//106
f 81//101 104//101 102//101 66//101
f 109//107 113//107 115//107 111//107
f 65//108 109//108 111//108 102//108
f 117//109 121//109 123//109 119//109
f 113//110 117//110 119//110 115//110
f 98//111 99//111 100//111 162//111
f 100//112 99//112 124//112
f 106//113 163//113 162//113 100//113
f 101//114 159//114 163//114 106//114
f 26//115 23//115 160//115 161//115
f 101//116 26//116 161//116 159//116
f 100//117 124//117 92//117
f 23//118 18//118 124//118
f 27//19 24//19 6//19
f 107//52 66//52 102//52
usemtl 1A1A1A
f 45//119 52//119 44//119
f 44//119 52//119 51//119
f 50//119 52//119 49//119
f 48//119 52//119 47//119
f 46//119 52//119 45//119
f 51//120 52//120 50//120
f 49//119 52//119 48//119
f 47//119 52//119 46//119
f 45//121 44//121 59//121 58//121
f 44//122 51//122 60//122 59//122
f 50//123 49//123 54//123 53//123
f 48//124 47//124 56//124 55//124
f 46//125 45//125 58//125 57//125
f 51//126 50//126 53//126 60//126
f 49//127 48//127 55//127 54//127
f 47//128 46//128 57//128 56//128
f 126//129 125//129 133//129
f 125//129 132//129 133//129
f 131//129 130//129 133//129
f 129//129 128//129 133//129
f 127//129 126//129 133//129
f 132//130 131//130 133//130
f 130//129 129//129 133//129
f 128//129 127//129 133//129
f 126//131 139//131 140//131 125//131
f 125//132 140//132 141//132 132//132
f 131//133 134//133 135//133 130//133
f 129//134 136//134 137//134 128//134
f 127//135 138//135 139//135 126//135
f 132//136 141//136 134//136 131//136
f 130//137 135//137 136//137 129//137
f 128//138 137//138 138//138 127//138
